<mxfile host="app.diagrams.net" modified="2023-07-29T10:26:38.013Z" agent="Mozilla/5.0 (Windows NT 10.0; Win64; x64) AppleWebKit/537.36 (KHTML, like Gecko) Chrome/115.0.0.0 Safari/537.36" etag="sHs84sp02jtPfI6dKz1A" version="21.5.0" type="github">
  <diagram name="第 1 页" id="khpIm3tYR11-D4J1SbI3">
    <mxGraphModel dx="1908" dy="1088" grid="1" gridSize="10" guides="1" tooltips="1" connect="1" arrows="1" fold="1" page="1" pageScale="1" pageWidth="827" pageHeight="1169" math="0" shadow="0">
      <root>
        <mxCell id="0" />
        <mxCell id="1" parent="0" />
        <mxCell id="XX_Q1_ToT9SIddWSc204-1" value="Topic: Word" style="rounded=0;whiteSpace=wrap;html=1;fontSize=14;" vertex="1" parent="1">
          <mxGeometry x="90" y="80" width="690" height="60" as="geometry" />
        </mxCell>
        <mxCell id="XX_Q1_ToT9SIddWSc204-12" style="edgeStyle=orthogonalEdgeStyle;rounded=0;orthogonalLoop=1;jettySize=auto;html=1;fontSize=14;" edge="1" parent="1" source="XX_Q1_ToT9SIddWSc204-2" target="XX_Q1_ToT9SIddWSc204-1">
          <mxGeometry relative="1" as="geometry" />
        </mxCell>
        <mxCell id="XX_Q1_ToT9SIddWSc204-2" value="Parittion" style="rounded=0;whiteSpace=wrap;html=1;fontSize=14;" vertex="1" parent="1">
          <mxGeometry x="90" y="180" width="60" height="130" as="geometry" />
        </mxCell>
        <mxCell id="XX_Q1_ToT9SIddWSc204-13" style="edgeStyle=orthogonalEdgeStyle;rounded=0;orthogonalLoop=1;jettySize=auto;html=1;fontSize=14;" edge="1" parent="1" source="XX_Q1_ToT9SIddWSc204-3" target="XX_Q1_ToT9SIddWSc204-1">
          <mxGeometry relative="1" as="geometry" />
        </mxCell>
        <mxCell id="XX_Q1_ToT9SIddWSc204-3" value="Parittion" style="rounded=0;whiteSpace=wrap;html=1;fontSize=14;" vertex="1" parent="1">
          <mxGeometry x="160" y="180" width="60" height="130" as="geometry" />
        </mxCell>
        <mxCell id="XX_Q1_ToT9SIddWSc204-14" style="edgeStyle=orthogonalEdgeStyle;rounded=0;orthogonalLoop=1;jettySize=auto;html=1;fontSize=14;" edge="1" parent="1" source="XX_Q1_ToT9SIddWSc204-4" target="XX_Q1_ToT9SIddWSc204-1">
          <mxGeometry relative="1" as="geometry" />
        </mxCell>
        <mxCell id="XX_Q1_ToT9SIddWSc204-4" value="Parittion" style="rounded=0;whiteSpace=wrap;html=1;fontSize=14;" vertex="1" parent="1">
          <mxGeometry x="230" y="180" width="60" height="130" as="geometry" />
        </mxCell>
        <mxCell id="XX_Q1_ToT9SIddWSc204-16" style="edgeStyle=orthogonalEdgeStyle;rounded=0;orthogonalLoop=1;jettySize=auto;html=1;fontSize=14;" edge="1" parent="1" source="XX_Q1_ToT9SIddWSc204-5" target="XX_Q1_ToT9SIddWSc204-1">
          <mxGeometry relative="1" as="geometry" />
        </mxCell>
        <mxCell id="XX_Q1_ToT9SIddWSc204-5" value="Parittion" style="rounded=0;whiteSpace=wrap;html=1;fontSize=14;" vertex="1" parent="1">
          <mxGeometry x="300" y="180" width="60" height="130" as="geometry" />
        </mxCell>
        <mxCell id="XX_Q1_ToT9SIddWSc204-17" style="edgeStyle=orthogonalEdgeStyle;rounded=0;orthogonalLoop=1;jettySize=auto;html=1;fontSize=14;" edge="1" parent="1" source="XX_Q1_ToT9SIddWSc204-6" target="XX_Q1_ToT9SIddWSc204-1">
          <mxGeometry relative="1" as="geometry" />
        </mxCell>
        <mxCell id="XX_Q1_ToT9SIddWSc204-6" value="Parittion" style="rounded=0;whiteSpace=wrap;html=1;fontSize=14;" vertex="1" parent="1">
          <mxGeometry x="370" y="180" width="60" height="130" as="geometry" />
        </mxCell>
        <mxCell id="XX_Q1_ToT9SIddWSc204-18" style="edgeStyle=orthogonalEdgeStyle;rounded=0;orthogonalLoop=1;jettySize=auto;html=1;fontSize=14;" edge="1" parent="1" source="XX_Q1_ToT9SIddWSc204-7" target="XX_Q1_ToT9SIddWSc204-1">
          <mxGeometry relative="1" as="geometry" />
        </mxCell>
        <mxCell id="XX_Q1_ToT9SIddWSc204-7" value="Parittion" style="rounded=0;whiteSpace=wrap;html=1;fontSize=14;" vertex="1" parent="1">
          <mxGeometry x="440" y="180" width="60" height="130" as="geometry" />
        </mxCell>
        <mxCell id="XX_Q1_ToT9SIddWSc204-19" style="edgeStyle=orthogonalEdgeStyle;rounded=0;orthogonalLoop=1;jettySize=auto;html=1;fontSize=14;" edge="1" parent="1" source="XX_Q1_ToT9SIddWSc204-8" target="XX_Q1_ToT9SIddWSc204-1">
          <mxGeometry relative="1" as="geometry" />
        </mxCell>
        <mxCell id="XX_Q1_ToT9SIddWSc204-8" value="Parittion" style="rounded=0;whiteSpace=wrap;html=1;fontSize=14;" vertex="1" parent="1">
          <mxGeometry x="510" y="180" width="60" height="130" as="geometry" />
        </mxCell>
        <mxCell id="XX_Q1_ToT9SIddWSc204-20" style="edgeStyle=orthogonalEdgeStyle;rounded=0;orthogonalLoop=1;jettySize=auto;html=1;fontSize=14;" edge="1" parent="1" source="XX_Q1_ToT9SIddWSc204-9" target="XX_Q1_ToT9SIddWSc204-1">
          <mxGeometry relative="1" as="geometry" />
        </mxCell>
        <mxCell id="XX_Q1_ToT9SIddWSc204-9" value="Parittion" style="rounded=0;whiteSpace=wrap;html=1;fontSize=14;" vertex="1" parent="1">
          <mxGeometry x="580" y="180" width="60" height="130" as="geometry" />
        </mxCell>
        <mxCell id="XX_Q1_ToT9SIddWSc204-21" style="edgeStyle=orthogonalEdgeStyle;rounded=0;orthogonalLoop=1;jettySize=auto;html=1;fontSize=14;" edge="1" parent="1" source="XX_Q1_ToT9SIddWSc204-10" target="XX_Q1_ToT9SIddWSc204-1">
          <mxGeometry relative="1" as="geometry" />
        </mxCell>
        <mxCell id="XX_Q1_ToT9SIddWSc204-10" value="Parittion" style="rounded=0;whiteSpace=wrap;html=1;fontSize=14;" vertex="1" parent="1">
          <mxGeometry x="650" y="180" width="60" height="130" as="geometry" />
        </mxCell>
        <mxCell id="XX_Q1_ToT9SIddWSc204-22" style="edgeStyle=orthogonalEdgeStyle;rounded=0;orthogonalLoop=1;jettySize=auto;html=1;fontSize=14;" edge="1" parent="1" source="XX_Q1_ToT9SIddWSc204-11" target="XX_Q1_ToT9SIddWSc204-1">
          <mxGeometry relative="1" as="geometry" />
        </mxCell>
        <mxCell id="XX_Q1_ToT9SIddWSc204-11" value="Parittion" style="rounded=0;whiteSpace=wrap;html=1;fontSize=14;" vertex="1" parent="1">
          <mxGeometry x="720" y="180" width="60" height="130" as="geometry" />
        </mxCell>
      </root>
    </mxGraphModel>
  </diagram>
</mxfile>
